<?xml version="1.0" encoding="UTF-8"?><svg id="a" xmlns="http://www.w3.org/2000/svg" viewBox="0 0 200.97 200.73"><path d="M100.28,11.45c-2.38,2.34-4.76,4.67-7.13,7.02-4.69,4.66-9.37,9.33-14.03,14.03-.67,.67-1.33,.97-2.29,.97-17.62-.03-35.24-.02-52.86-.02h-1.54V178.33H167.49v-1.49c0-17.58,0-35.16-.02-52.74,0-1.03,.26-1.77,1.02-2.52,6.81-6.74,13.58-13.53,20.36-20.3,.23-.23,.49-.43,.89-.79,.04,.52,.09,.86,.09,1.21,0,25.49,.03,50.98,0,76.47-.02,12.71-9.97,22.55-22.7,22.55-48.17,0-96.35,0-144.52,0C9.9,200.73,0,190.82,0,178.11,0,129.98,0,81.84,0,33.71c0-12.65,9.86-22.59,22.5-22.6,25.49-.03,50.98,0,76.47,0,.37,0,.74,0,1.11,0l.2,.35Z"/><path d="M55.88,144.87c.22-.71,.37-1.21,.54-1.7,5.09-15.13,10.18-30.26,15.3-45.38,.22-.64,.62-1.29,1.1-1.77,25.1-25.08,50.22-50.15,75.33-75.21,6.52-6.5,13.01-13.02,19.56-19.5,.52-.52,1.31-.93,2.03-1.05,4.35-.71,8.53,.04,12.42,2.02,8.55,4.35,14.78,10.85,17.84,20.08,.93,2.8,1.25,5.73,.66,8.67-.15,.76-.53,1.61-1.07,2.15-15.81,15.85-31.65,31.67-47.48,47.5-15.74,15.74-31.48,31.48-47.24,47.2-.48,.48-1.1,.93-1.74,1.15-15.24,5.16-30.49,10.29-45.74,15.42-.42,.14-.85,.24-1.51,.42Zm29.68-15.9c.46-.12,.86-.21,1.25-.34,3.48-1.17,6.92-2.52,10.46-3.49,3.39-.93,6.03-2.74,8.44-5.25,1.41-1.47,1.71-2.86,1.42-4.69-1.04-6.62-4.49-11.8-9.53-16.01-3.82-3.19-8.16-5.2-13.18-5.56-.68-.05-1.65-.13-2.02,.26-2.34,2.42-5.4,4.28-6.13,8-.31,1.58-1.03,3.09-1.55,4.63-.98,2.88-1.95,5.76-2.94,8.71,6.38,2.83,10.95,7.39,13.79,13.75Z"/></svg>