<svg id="Layer_1" data-name="Layer 1" xmlns="http://www.w3.org/2000/svg" viewBox="0 0 476.74 396.24"><defs><style>.cls-1{fill:#fff;}</style></defs><path class="cls-1" d="M327.76,467.37v.08h25.39q50,0,99.92-.05c24.67,0,49.34.2,74,0,15.88-.14,28-7.39,35.15-21.59,7.33-14.62,5.65-29-4.3-41.93-8.35-10.8-19.95-15.05-33.56-14.94-29.42.23-58.84.11-88.26.11q-52.16,0-104.32,0t-104.31,0c-33,0-66-.16-99,0-29,.14-47.79,32.36-33.65,57.72,8,14.29,20.47,20.74,36.8,20.66,32.06-.17,64.12-.05,96.18-.05Zm.53,239.34q-99.26,0-198.49,0a39.23,39.23,0,1,0-.18,78.45h299c33.16,0,66.32.11,99.48,0,20.7-.11,37.85-17.27,38.38-38A39.15,39.15,0,0,0,527,706.71Zm-.21-158.77H260.41c-43.87,0-87.73-.13-131.6.1a39.9,39.9,0,0,0-15,3.2c-17.21,7.34-26.73,25.74-23,43.38,3.81,18.24,19.37,31.42,37.69,31.6,16.49.16,33,0,49.48,0l88.27,0q44.13,0,88.27,0l88.26,0c28.53,0,57.06.21,85.59-.07,13.8-.13,24.78-6.51,32-18.2,8-12.88,8.49-26.54,1.09-39.86s-19.34-20-34.66-20.16c-13.46-.13-26.92,0-40.39,0Z" transform="translate(-90 -388.93)"/><path d="M327.76,467.37H227.84c-32.06,0-64.12-.12-96.18.05-16.33.08-28.83-6.37-36.8-20.66C80.72,421.4,99.49,389.18,128.51,389c33-.16,66,0,99,0q52.16,0,104.31,0t104.32,0c29.42,0,58.84.12,88.26-.11,13.61-.11,25.21,4.14,33.56,14.94,10,12.89,11.63,27.31,4.3,41.93-7.11,14.2-19.27,21.45-35.15,21.59-24.66.21-49.33,0-74,0q-50,0-99.92.05H327.76Z" transform="translate(-90 -388.93)"/><path d="M328.29,706.71H527a39.15,39.15,0,0,1,39.42,40.41c-.53,20.69-17.68,37.85-38.38,38-33.16.16-66.32,0-99.48,0h-299a39.23,39.23,0,1,1,.18-78.45Q229,706.74,328.29,706.71Z" transform="translate(-90 -388.93)"/><path d="M328.08,547.94H486.42c13.47,0,26.93-.14,40.39,0,15.32.14,27.2,6.75,34.66,20.16s6.91,27-1.09,39.86c-7.25,11.69-18.23,18.07-32,18.2-28.53.28-57.06.07-85.59.07l-88.26,0q-44.14,0-88.27,0l-88.27,0c-16.49,0-33,.13-49.48,0-18.32-.18-33.88-13.36-37.69-31.6-3.69-17.64,5.83-36,23-43.38a39.9,39.9,0,0,1,15-3.2c43.87-.23,87.73-.11,131.6-.1Z" transform="translate(-90 -388.93)"/></svg>